<?xml version="1.0" standalone="no"?>
<!DOCTYPE svg PUBLIC "-//W3C//DTD SVG 1.1//EN" "http://www.w3.org/Graphics/SVG/1.1/DTD/svg11.dtd" >
<svg xmlns="http://www.w3.org/2000/svg">
<metadata></metadata>
<defs>
<font id="neuzeitgroblaregular" horiz-adv-x="1024" >
<font-face units-per-em="2048" ascent="1536" descent="-512" />
<missing-glyph horiz-adv-x="614" />
<glyph unicode="&#xfb01;" horiz-adv-x="1114" d="M43 690v258h94v17q-1 210 102.5 308.5t319.5 92.5v-289q-57 -6 -83.5 -33t-26.5 -79v-17h110v-258h-110v-690h-312v690h-94zM678 1225q0 72 47.5 119t120.5 47q72 0 118 -47t46 -121q0 -70 -47.5 -117t-118.5 -47q-72 0 -119 47t-47 119zM688 0v948h311v-948h-311z" />
<glyph unicode="&#xfb02;" horiz-adv-x="1114" d="M43 690v258h94v17q-1 210 102.5 308.5t319.5 92.5v-289q-57 -6 -83.5 -33t-26.5 -79v-17h110v-258h-110v-690h-312v690h-94zM688 0v1366h311v-1366h-311z" />
<glyph unicode="&#xfb03;" horiz-adv-x="1730" d="M43 690v258h94v17q-1 210 102.5 308.5t319.5 92.5v-289q-57 -6 -83.5 -33t-26.5 -79v-17h110v-258h-110v-690h-312v690h-94zM627 690v258h92v17q-1 210 102.5 308.5t319.5 92.5v-289q-57 -6 -84 -33t-27 -79v-17h111v-258h-111v-690h-311v690h-92zM1292 1225 q0 72 47.5 119t120.5 47q72 0 118 -47t46 -121q0 -70 -47.5 -117t-118.5 -47q-72 0 -119 47t-47 119zM1303 0v948h311v-948h-311z" />
<glyph horiz-adv-x="0" />
<glyph horiz-adv-x="682" />
<glyph unicode=" "  horiz-adv-x="614" />
<glyph unicode="&#x09;" horiz-adv-x="614" />
<glyph unicode="&#xa0;" horiz-adv-x="614" />
<glyph unicode="!" horiz-adv-x="618" d="M137 141q0 75 49 123.5t125 48.5q73 0 121.5 -49.5t48.5 -124.5q0 -73 -49 -121.5t-123 -48.5q-75 0 -123.5 48.5t-48.5 123.5zM158 471v895h303v-895h-303z" />
<glyph unicode="&#x22;" horiz-adv-x="921" d="M49 1366h369l-64 -549h-241zM504 1366h366l-63 -549h-242z" />
<glyph unicode="#" d="M51 606h213l27 178h-185l-2 156h209l56 371h151l-53 -371h180l53 371h158l-55 -371h168l2 -156h-193l-24 -178h166l2 -155h-191l-59 -396h-158l57 396h-178l-59 -396h-156l60 396h-187zM418 606h178l29 178h-183z" />
<glyph unicode="$" d="M59 965q0 169 112 283t282 118v145h102v-145q188 -29 283 -119.5t102 -247.5h-272q1 46 -29 75.5t-84 37.5v-301q144 -46 233 -100q83 -50 128 -127t45 -172q0 -112 -58.5 -212t-152.5 -147q-66 -35 -195 -51v-176h-102v176q-167 9 -275.5 118.5t-111.5 270.5h278 q-3 -108 109 -137v295q-212 71 -303 166.5t-91 249.5zM334 981q0 -27 13 -55t32 -43q22 -16 74 -37v266q-56 -8 -87.5 -42t-31.5 -89zM555 254q117 22 117 137q0 50 -25.5 76t-91.5 45v-258z" />
<glyph unicode="%" horiz-adv-x="1458" d="M76 944v160q0 149 61 213q70 76 205 76q119 0 197 -66q42 -37 60.5 -85.5t18.5 -121.5v-217q0 -131 -69 -199.5t-199 -68.5q-136 0 -209 67q-35 35 -50 89.5t-15 152.5zM244 29l882 1364l88 -54l-882 -1366zM266 922q0 -63 10 -86q15 -35 74 -35q47 0 64.5 27.5 t17.5 101.5v174q0 69 -17.5 94t-64.5 25q-50 0 -67 -24.5t-17 -94.5v-182zM840 281v161q0 149 61 213q73 76 205 76q120 0 197 -65q79 -70 79 -209v-215q0 -131 -69 -200t-199 -69q-135 0 -209 68q-35 35 -50 89.5t-15 150.5zM1030 258q0 -62 10 -84q15 -35 74 -35 q47 0 64.5 27.5t17.5 99.5v176q0 69 -17.5 94t-64.5 25q-50 0 -67 -24.5t-17 -94.5v-184z" />
<glyph unicode="&#x26;" horiz-adv-x="1345" d="M68 354q0 132 61 223t221 197q-61 89 -84.5 149.5t-23.5 131.5q0 137 103 223t267 86q160 0 263.5 -86.5t103.5 -220.5q0 -113 -78 -213q-26 -36 -57 -63.5t-92 -67.5l157 -205q76 66 107.5 97.5t97.5 107.5l205 -181q-87 -98 -122 -134t-114 -105l236 -293h-363l-88 106 q-112 -78 -203.5 -112.5t-183.5 -34.5q-184 0 -298.5 110t-114.5 285zM373 381q0 -59 42.5 -101t102.5 -42q46 0 91 23t79 63l-184 229q-131 -77 -131 -172zM532 1051q0 -55 62 -131q104 63 104 131q0 36 -22 60t-55 24q-35 0 -62 -25t-27 -59z" />
<glyph unicode="'" horiz-adv-x="479" d="M49 1366h379l-63 -549h-252z" />
<glyph unicode="(" horiz-adv-x="694" d="M68 483q0 306 129 615q49 113 94.5 184t124.5 158l196 -180q-268 -362 -268 -795q0 -403 268 -754l-213 -176q-331 447 -331 948z" />
<glyph unicode=")" horiz-adv-x="694" d="M82 -283q268 363 268 793q0 401 -268 756l213 174q332 -452 332 -948q0 -307 -131 -613q-46 -113 -91.5 -184.5t-125.5 -159.5z" />
<glyph unicode="*" horiz-adv-x="839" d="M109 1079l59 158l162 -49v178h168v-178l172 67l61 -155l-190 -76l129 -147l-129 -101l-127 148l-101 -148l-145 101l104 147z" />
<glyph unicode="+" d="M16 662v157h414v412h164v-412h416v-157h-416v-412h-164v412h-414z" />
<glyph unicode="," horiz-adv-x="563" d="M86 -199l92 512l287 -65l-172 -492z" />
<glyph unicode="-" horiz-adv-x="468" d="M0 365v272h469v-272h-469z" />
<glyph unicode="." horiz-adv-x="563" d="M109 141q0 75 49 123.5t125 48.5q73 0 121.5 -49.5t48.5 -124.5q0 -73 -49 -121.5t-123 -48.5q-75 0 -123.5 48.5t-48.5 123.5z" />
<glyph unicode="/" horiz-adv-x="802" d="M-117 -418l676 1784h203l-676 -1784h-203z" />
<glyph unicode="0" d="M74 485v430q0 131 23 214.5t75 138.5q55 61 142 94t190 33q194 0 315 -109q69 -62 100 -143t31 -203v-524q0 -120 -29 -200.5t-92 -139.5q-117 -105 -313 -105q-217 0 -336 113q-58 57 -82 147.5t-24 253.5zM385 444q0 -65 3 -88t15 -43q13 -26 44 -41.5t67 -15.5 q34 0 64 16t43 43q13 23 17.5 53t4.5 93v454q0 63 -6 93t-23 53q-32 43 -100 43q-72 0 -100.5 -42t-28.5 -147v-471z" />
<glyph unicode="1" d="M236 870v285l534 248v-1403h-313v969z" />
<glyph unicode="2" d="M41 0l477 750q62 98 83.5 145.5t21.5 89.5q0 57 -35.5 92t-95.5 35q-46 0 -82.5 -23.5t-49.5 -64.5q-16 -46 -18 -127h-283v35q0 207 125 335t326 128q187 0 306.5 -106.5t119.5 -272.5q0 -96 -38.5 -192t-135.5 -246l-203 -308h342v-270h-860z" />
<glyph unicode="3" d="M49 401h279q7 -72 47.5 -111.5t105.5 -39.5q71 0 119.5 49t48.5 121q0 78 -47 128t-121 50q-58 0 -106 -31l-187 158l271 379h-353v262h859l-367 -510q161 -22 253.5 -133t92.5 -281q0 -205 -129.5 -338t-327.5 -133q-120 0 -220 52.5t-154 144.5q-31 51 -44.5 101 t-19.5 132z" />
<glyph unicode="4" d="M68 266v262l417 838h361v-838h108v-262h-108v-266h-297v266h-481zM309 528h240v467z" />
<glyph unicode="5" d="M72 297l266 100q44 -133 158 -133q67 0 111 47t44 119q0 69 -46.5 119.5t-110.5 50.5q-84 0 -138 -78h-225v844h748v-276h-467v-263q76 35 155 35q164 0 274.5 -121.5t110.5 -302.5q0 -204 -124.5 -335.5t-319.5 -131.5q-202 0 -326 133q-35 36 -57.5 76.5t-52.5 116.5z " />
<glyph unicode="6" d="M63 410q0 102 41 210t132 252l315 494h348l-348 -537q35 7 45 7q150 0 257.5 -118.5t107.5 -283.5q0 -193 -134.5 -328t-326.5 -135q-187 0 -312 125.5t-125 313.5zM354 416q0 -67 44 -110.5t110 -43.5q68 0 115 46t47 112q0 69 -44 114.5t-110 45.5q-69 0 -115.5 -47.5 t-46.5 -116.5z" />
<glyph unicode="7" d="M106 0l424 1087h-399v279h830l-535 -1366h-320z" />
<glyph unicode="8" d="M61 381q0 231 175 324q-68 40 -104 110.5t-36 163.5q0 184 118 300t306 116q184 0 301 -113.5t117 -292.5q0 -95 -36.5 -169t-104.5 -115q166 -99 166 -308q0 -186 -128.5 -306t-328.5 -120q-197 0 -321 114.5t-124 295.5zM356 406q0 -68 43.5 -111t112.5 -43 q66 0 110 44t44 110q0 63 -45.5 108t-108.5 45q-67 0 -111.5 -43.5t-44.5 -109.5zM373 981q0 -65 41.5 -109.5t101.5 -44.5q61 0 106.5 45t45.5 105q0 61 -44.5 106t-103.5 45q-63 0 -105 -42t-42 -105z" />
<glyph unicode="9" d="M63 938q0 195 131 326t326 131q192 0 317.5 -127.5t125.5 -319.5q0 -199 -172 -465l-310 -483h-346l346 532q-8 -2 -20 -2q-171 0 -284.5 116t-113.5 292zM358 952q0 -67 44 -112t110 -45q68 0 114 44.5t46 110.5q0 65 -45.5 111.5t-108.5 46.5q-66 0 -113 -46t-47 -110z " />
<glyph unicode=":" horiz-adv-x="563" d="M109 141q0 75 49 123.5t125 48.5q73 0 121.5 -49.5t48.5 -124.5q0 -73 -49 -121.5t-123 -48.5q-75 0 -123.5 48.5t-48.5 123.5zM109 854q0 75 49 123.5t125 48.5q73 0 121.5 -49.5t48.5 -124.5q0 -73 -49 -121.5t-123 -48.5q-75 0 -123.5 48.5t-48.5 123.5z" />
<glyph unicode=";" horiz-adv-x="563" d="M86 -199l92 512l287 -65l-172 -492zM141 813q0 75 49 123.5t125 48.5q73 0 121.5 -49.5t48.5 -124.5q0 -73 -49 -121.5t-123 -48.5q-75 0 -123.5 48.5t-48.5 123.5z" />
<glyph unicode="&#x3c;" d="M68 551v283l886 475v-336l-528 -283l526 -282l2 -334z" />
<glyph unicode="=" d="M16 508v154h994v-154h-994zM16 819v154h994v-154h-994z" />
<glyph unicode="&#x3e;" d="M68 74v338l528 280l-526 283l-2 334l886 -475v-285z" />
<glyph unicode="?" horiz-adv-x="935" d="M43 987q4 193 112.5 299.5t299.5 106.5q183 0 298 -103.5t115 -269.5q0 -98 -40.5 -171.5t-131.5 -139.5q-75 -55 -93.5 -80.5t-18.5 -71.5v-29v-32h-314q-2 35 -2 77q0 108 31.5 159t161.5 153q51 39 71.5 68.5t20.5 62.5q0 44 -30 71t-79 27q-108 0 -114 -127h-287z M256 141q0 75 49 123.5t125 48.5q73 0 121.5 -49.5t48.5 -124.5q0 -73 -49 -121.5t-123 -48.5q-75 0 -123.5 48.5t-48.5 123.5z" />
<glyph unicode="@" horiz-adv-x="2029" d="M109 547q0 413 280 663q127 112 295 173t350 61q184 0 349 -61t282.5 -165t186.5 -249t69 -307q0 -160 -69.5 -294.5t-182.5 -193.5q-110 -55 -268 -55q-162 0 -230 71q-94 -73 -219 -73q-170 0 -280.5 119.5t-110.5 302.5q0 189 115.5 313.5t290.5 124.5q127 0 221 -82 v55h262v-518q0 -44 6 -55.5t31 -11.5q80 0 133 83t53 207q0 150 -83 274t-228.5 194.5t-321.5 70.5q-195 0 -350 -81.5t-241.5 -228t-86.5 -331.5q0 -278 180.5 -456.5t461.5 -178.5q72 0 133 9.5t161 35.5v-260q-188 -35 -292 -35q-203 0 -392.5 87.5t-318.5 240.5 q-186 216 -186 551zM836 541q0 -87 50 -146t124 -59q77 0 129.5 63.5t52.5 155.5q0 85 -51.5 140t-130.5 55q-77 0 -125.5 -58.5t-48.5 -150.5z" />
<glyph unicode="A" horiz-adv-x="1320" d="M0 0l451 1366h421l449 -1366h-365l-59 197h-483l-60 -197h-354zM496 465h319l-160 510z" />
<glyph unicode="B" horiz-adv-x="1191" d="M129 0v1366h467q244 0 348 -66q70 -43 111 -125t41 -180q0 -145 -92 -237q-29 -30 -58 -46t-86 -34q62 -13 96.5 -30t67.5 -48q92 -86 92 -238q0 -96 -36.5 -175.5t-102.5 -123.5q-51 -34 -118 -48.5t-171 -14.5h-559zM461 238h121q106 0 152 36t46 121q0 100 -73 140 q-27 15 -60.5 19.5t-109.5 4.5h-76v-321zM461 801h82q111 0 163 38.5t52 121.5t-51.5 120t-167.5 37h-78v-317z" />
<glyph unicode="C" horiz-adv-x="1304" d="M70 680q0 166 63.5 313.5t177.5 245.5q183 154 453 154q171 0 323 -68q53 -25 93.5 -54t101.5 -85l-213 -223q-139 122 -293 122q-164 0 -267 -110t-103 -285q0 -181 109.5 -295t281.5 -114q168 0 272 116l197 -229q-123 -105 -241.5 -150t-270.5 -45q-314 0 -500 207 q-88 97 -136 228t-48 272z" />
<glyph unicode="D" horiz-adv-x="1327" d="M129 0v1366h399q177 0 294.5 -34.5t211.5 -114.5q108 -92 165.5 -226.5t57.5 -294.5q0 -161 -57 -302.5t-160 -235.5q-175 -158 -475 -158h-436zM461 272h51q182 0 296 115t114 299q0 91 -34 177t-91 138q-50 45 -124.5 72t-148.5 27h-63v-828z" />
<glyph unicode="E" horiz-adv-x="940" d="M68 0v1366h782v-268h-451v-279h451v-268h-451v-283h451v-268h-782z" />
<glyph unicode="F" horiz-adv-x="966" d="M129 0v1366h786v-268h-454v-279h454v-268h-454v-551h-332z" />
<glyph unicode="G" horiz-adv-x="1560" d="M70 680q0 200 93 363.5t255.5 256.5t361.5 93q171 0 321 -71t255 -200l-252 -194q-66 82 -141 119.5t-172 37.5q-164 0 -274.5 -116.5t-110.5 -290.5q0 -169 116 -286.5t283 -117.5q118 0 209.5 63.5t132.5 172.5h-336v268h698q2 -27 2 -71q0 -332 -225 -541 q-103 -93 -233 -143t-269 -50q-150 0 -282.5 54.5t-227 148.5t-149.5 225t-55 279z" />
<glyph unicode="H" horiz-adv-x="1372" d="M129 0v1366h332v-559h448v559h332v-1366h-332v539h-448v-539h-332z" />
<glyph unicode="I" horiz-adv-x="591" d="M129 0v1366h332v-1366h-332z" />
<glyph unicode="J" horiz-adv-x="796" d="M68 -27v295q23 -2 47 -2q113 0 170 45q40 31 54.5 85.5t14.5 174.5v527h-286v268h618v-852q0 -140 -22 -227.5t-73 -147.5t-145 -110q-121 -56 -378 -56z" />
<glyph unicode="K" horiz-adv-x="1175" d="M129 0v1366h332v-578l319 578h381l-381 -649l381 -717h-381l-319 598v-598h-332z" />
<glyph unicode="L" horiz-adv-x="946" d="M129 0v1366h332v-1098h444v-268h-776z" />
<glyph unicode="M" horiz-adv-x="1757" d="M129 0v1366h387l363 -735l358 735h389v-1366h-332v780l-415 -835l-418 835v-780h-332z" />
<glyph unicode="N" horiz-adv-x="1421" d="M129 0v1366h332l497 -768v768h332v-1366h-332l-497 778v-778h-332z" />
<glyph unicode="O" horiz-adv-x="1585" d="M70 678q0 150 58.5 284.5t170.5 239.5q99 93 229.5 142t280.5 49q149 0 280 -54.5t225 -148.5t148 -226.5t54 -283.5q0 -144 -56.5 -275t-152.5 -225.5t-228 -150.5t-278 -56q-150 0 -285.5 55.5t-233 149.5t-155 224.5t-57.5 275.5zM408 682q0 -169 112 -285t275 -116 q160 0 272.5 115.5t112.5 279.5q0 175 -109.5 292t-273.5 117q-167 0 -278 -115t-111 -288z" />
<glyph unicode="P" horiz-adv-x="1148" d="M129 0v1366h469q243 0 375.5 -117t132.5 -331q0 -216 -133 -345t-355 -129h-157v-444h-332zM461 717h92q103 0 160 49.5t57 138.5q0 85 -53.5 137t-141.5 52h-114v-377z" />
<glyph unicode="Q" horiz-adv-x="1583" d="M70 678q0 156 67.5 301.5t188.5 247.5q193 166 475 166q149 0 281 -54t226.5 -147t149.5 -222.5t55 -275.5q0 -129 -42.5 -251.5t-118.5 -213.5l118 -129l-237 -196l-113 141q-163 -72 -327 -72q-195 0 -361.5 94.5t-264 257t-97.5 353.5zM408 682q0 -169 111.5 -284 t275.5 -115q58 0 92 10l-90 108l237 197l99 -113q45 102 45 209q0 163 -111.5 277t-271.5 114q-164 0 -275.5 -115.5t-111.5 -287.5z" />
<glyph unicode="R" horiz-adv-x="1220" d="M129 0v1366h442q271 0 402 -102q71 -56 109 -145t38 -201q0 -311 -264 -416l301 -502h-397l-299 528v-528h-332zM461 715h106q103 0 160 49.5t57 138.5q0 86 -53.5 138.5t-142.5 52.5h-127v-379z" />
<glyph unicode="S" horiz-adv-x="1097" d="M55 414h326q-2 -8 -2 -23q0 -51 48 -88t114 -37q60 0 100.5 31.5t40.5 77.5q0 47 -39 76.5t-158 72.5q-224 79 -319.5 181.5t-95.5 259.5q0 192 130 310t343 118q138 0 246.5 -55.5t168.5 -155.5q52 -85 72 -219h-338q-8 71 -44.5 104t-106.5 33q-61 0 -98 -29.5 t-37 -79.5q0 -61 63 -98q36 -23 156 -68q116 -44 180 -78t110 -75q115 -106 115 -275q0 -191 -134.5 -307.5t-354.5 -116.5q-224 0 -355 119t-131 322z" />
<glyph unicode="T" horiz-adv-x="960" d="M0 1098v268h961v-268h-314v-1098h-332v1098h-315z" />
<glyph unicode="U" horiz-adv-x="1310" d="M109 586v780h331v-795q0 -146 47 -213q26 -36 71 -56.5t97 -20.5q57 0 106.5 25t72.5 65q34 61 34 200v795h332v-780q0 -302 -141 -455q-69 -75 -174 -116.5t-228 -41.5q-128 0 -238 44t-183 126q-66 74 -96.5 179t-30.5 264z" />
<glyph unicode="V" horiz-adv-x="1163" d="M0 1366h342l231 -834l248 834h342l-411 -1366h-361z" />
<glyph unicode="W" horiz-adv-x="1751" d="M0 1366h352l176 -776l183 776h331l177 -795l186 795h346l-365 -1366h-344l-174 809l-174 -809h-342z" />
<glyph unicode="X" horiz-adv-x="1218" d="M6 0l418 733l-354 633h379l161 -328l174 328h377l-362 -633l411 -733h-376l-224 440l-223 -440h-381z" />
<glyph unicode="Y" horiz-adv-x="1169" d="M-27 1366h396l221 -420l217 420h389l-442 -764v-602h-332v602z" />
<glyph unicode="Z" horiz-adv-x="1138" d="M27 0l571 1098h-506v268h1018l-569 -1098h518v-268h-1032z" />
<glyph unicode="[" horiz-adv-x="694" d="M123 -418v1784h491v-178h-231v-1428h231v-178h-491z" />
<glyph unicode="\" horiz-adv-x="802" d="M41 1366h203l676 -1784h-203z" />
<glyph unicode="]" horiz-adv-x="694" d="M80 -240h231v1428h-231v178h491v-1784h-491v178z" />
<glyph unicode="^" d="M25 707l301 667h374l301 -667h-299l-188 440l-190 -440h-299z" />
<glyph unicode="_" d="M0 -111h1024v-198h-1024v198z" />
<glyph unicode="`" d="M182 1386h299l170 -290h-182z" />
<glyph unicode="a" horiz-adv-x="1273" d="M59 461q0 227 139 375.5t353 148.5q91 0 158.5 -32t136.5 -107v102h311v-948h-311v106q-125 -143 -322 -143q-203 0 -334 140t-131 358zM391 467q0 -109 65 -183.5t160 -74.5q97 0 165.5 77.5t68.5 184.5q0 113 -65 184.5t-167 71.5q-100 0 -163.5 -73t-63.5 -187z" />
<glyph unicode="b" horiz-adv-x="1271" d="M117 0v1366h311v-512q66 70 134.5 100.5t160.5 30.5q100 0 193.5 -39t162.5 -110q133 -136 133 -367q0 -229 -131 -367.5t-348 -138.5q-104 0 -174.5 32t-130.5 107v-102h-311zM424 463q0 -109 64 -181.5t161 -72.5q102 0 167 72t65 186q0 110 -65.5 185t-160.5 75 q-94 0 -162.5 -78.5t-68.5 -185.5z" />
<glyph unicode="c" horiz-adv-x="968" d="M59 469q0 225 146.5 370.5t372.5 145.5q109 0 202 -39t193 -125l-207 -186q-76 76 -174 76q-92 0 -155.5 -67t-63.5 -165q0 -103 67 -172t168 -69q42 0 76.5 14.5t81.5 52.5l186 -201q-85 -73 -174 -107t-196 -34q-105 0 -205 39.5t-174 110.5q-144 135 -144 356z" />
<glyph unicode="d" horiz-adv-x="1275" d="M59 463q0 245 156 389q149 133 332 133q92 0 162.5 -29t138.5 -94v504h311v-1366h-311v106q-32 -44 -55.5 -65.5t-55.5 -36.5q-84 -41 -196 -41q-217 0 -349.5 137t-132.5 363zM391 463q0 -107 67 -180.5t165 -73.5q95 0 160 73.5t65 180.5q0 114 -64 189t-161 75 q-100 0 -166 -75t-66 -189z" />
<glyph unicode="e" horiz-adv-x="1153" d="M59 479q0 226 143 366t373 140q235 0 380 -148t145 -391v-38h-719q17 -80 74.5 -125t142.5 -45q64 0 113 27t73 77l287 -74q-35 -71 -67 -111t-86 -81q-143 -113 -326 -113q-232 0 -382.5 145.5t-150.5 370.5zM379 573h403q-15 74 -68 114t-136 40q-80 0 -132 -40.5 t-67 -113.5z" />
<glyph unicode="f" horiz-adv-x="610" d="M43 690v258h94v17q-1 210 103 309q97 92 295 92h24v-289q-57 -6 -83.5 -33t-26.5 -79v-17h110v-258h-110v-690h-312v690h-94z" />
<glyph unicode="g" horiz-adv-x="1224" d="M23 465q0 233 134.5 376.5t354.5 143.5q95 0 165.5 -32t127.5 -101v96h303v-844q0 -157 -29 -252.5t-98 -164.5q-72 -72 -180 -112t-234 -40q-279 0 -489 195l188 192q117 -129 285 -129q120 0 187 69.5t67 194.5v47q-126 -141 -328 -141q-98 0 -190 43t-156 119 q-108 130 -108 340zM354 479q0 -106 64.5 -173.5t165.5 -67.5q109 0 176 73q41 47 41 138q0 123 -58.5 192.5t-162.5 69.5q-100 0 -163 -64.5t-63 -167.5z" />
<glyph unicode="h" horiz-adv-x="1103" d="M117 0v1366h311v-506q108 125 246 125q61 0 124 -24t107 -64q49 -44 69.5 -106.5t20.5 -169.5v-621h-311v569q0 71 -34 114.5t-91 43.5q-62 0 -96.5 -41.5t-34.5 -116.5v-569h-311z" />
<glyph unicode="i" horiz-adv-x="542" d="M106 1225q0 72 47.5 119t120.5 47q72 0 118 -47t46 -121q0 -70 -47.5 -117t-118.5 -47q-72 0 -119 47t-47 119zM117 0v948h311v-948h-311z" />
<glyph unicode="j" horiz-adv-x="542" d="M-51 -139q16 -2 45 -2q121 0 121 141v948h311v-948q0 -220 -95 -323t-298 -103q-14 0 -84 4v283zM104 1225q0 72 47.5 119t120.5 47q72 0 118 -47t46 -121q0 -70 -47.5 -117t-118.5 -47q-72 0 -119 47t-47 119z" />
<glyph unicode="k" horiz-adv-x="999" d="M117 0v1366h311v-756l211 338h352l-276 -450l276 -498h-352l-211 379v-379h-311z" />
<glyph unicode="l" horiz-adv-x="542" d="M117 0v1366h311v-1366h-311z" />
<glyph unicode="m" horiz-adv-x="1642" d="M117 0v948h311v-114q41 78 102.5 114.5t153.5 36.5q91 0 158.5 -39t101.5 -112q47 78 114.5 114.5t164.5 36.5q141 0 225 -84q46 -46 65 -107t19 -167v-627h-311v571q0 72 -32 114t-89 42t-89 -42t-32 -114v-571h-311v561q0 78 -32.5 122t-90.5 44q-61 0 -92 -45 q-25 -40 -25 -121v-561h-311z" />
<glyph unicode="n" horiz-adv-x="1110" d="M117 0v948h311v-106q46 78 101 110.5t141 32.5q70 0 134 -24.5t109 -67.5q48 -50 67 -118t19 -193v-582h-311v580q0 69 -34.5 108t-94.5 39t-95.5 -41.5t-35.5 -110.5v-575h-311z" />
<glyph unicode="o" horiz-adv-x="1183" d="M59 473q0 226 149.5 369t385.5 143q230 0 380 -147.5t150 -374.5q0 -138 -70.5 -253t-193.5 -181t-270 -66q-231 0 -381 144t-150 366zM371 473q0 -104 61.5 -169.5t159.5 -65.5q97 0 158 64t61 165q0 114 -58 178t-159 64t-162 -65t-61 -171z" />
<glyph unicode="p" horiz-adv-x="1280" d="M117 -418v1366h311v-90q56 66 126.5 96.5t168.5 30.5q139 0 254 -65q120 -69 182 -184t62 -269q0 -232 -132 -368t-356 -136q-192 0 -305 119v-500h-311zM428 463q0 -115 61 -184.5t162 -69.5q103 0 170.5 71.5t67.5 180.5q0 115 -64.5 190.5t-162.5 75.5 q-103 0 -168.5 -73.5t-65.5 -190.5z" />
<glyph unicode="q" horiz-adv-x="1275" d="M59 461q0 230 140 377t360 147q98 0 164 -28t125 -93v84h311v-1366h-311v494q-66 -60 -139.5 -86.5t-176.5 -26.5q-209 0 -341 139.5t-132 358.5zM391 469q0 -110 65 -185t162 -75t165.5 75.5t68.5 182.5q0 112 -65.5 186t-165.5 74t-165 -73t-65 -185z" />
<glyph unicode="r" horiz-adv-x="698" d="M117 0v948h311v-129q19 53 36 79t46 46q56 41 137 41h31v-319q-46 4 -57 4q-109 0 -162 -76q-18 -24 -24.5 -55.5t-6.5 -92.5v-446h-311z" />
<glyph unicode="s" horiz-adv-x="866" d="M47 283h295q9 -53 29 -75t59 -22q31 0 51.5 19.5t20.5 48.5q0 33 -31.5 54t-126.5 52q-155 49 -226 124t-71 188q0 141 105.5 227t277.5 86q169 0 267.5 -84t99.5 -233h-289v18q0 32 -26 54t-64 22q-32 0 -53 -18t-21 -46q0 -29 24.5 -48t84.5 -36q200 -57 281 -131 t81 -198q0 -145 -106 -233.5t-279 -88.5t-276 85.5t-107 234.5z" />
<glyph unicode="t" horiz-adv-x="604" d="M33 696v258h96v234h311v-234h109v-258h-109v-377q0 -33 15.5 -45.5t60.5 -15.5h33v-258h-240q-99 2 -141 48q-40 43 -39 140v9v499h-96z" />
<glyph unicode="u" horiz-adv-x="1083" d="M102 352v596h312v-573q0 -74 34 -114t97 -40q59 0 92 35t33 96v596h311v-596q0 -108 -26.5 -175.5t-86.5 -117.5q-122 -96 -323 -96q-221 0 -338 105q-105 89 -105 284z" />
<glyph unicode="v" horiz-adv-x="976" d="M-10 948h321l183 -489l178 489h317l-340 -948h-319z" />
<glyph unicode="w" horiz-adv-x="1525" d="M-10 948h315l166 -518l139 518h299l148 -518l166 518h315l-299 -948h-330l-143 514l-141 -514h-338z" />
<glyph unicode="x" horiz-adv-x="1015" d="M-6 948h389l137 -207l127 207h377l-330 -479l330 -469h-377l-127 217l-137 -217h-363l322 469z" />
<glyph unicode="y" horiz-adv-x="991" d="M-10 948h329l164 -497l191 497h327l-518 -1370h-333l169 440z" />
<glyph unicode="z" horiz-adv-x="880" d="M25 0l352 690h-324v258h803l-352 -690h334v-258h-813z" />
<glyph unicode="{" d="M178 367v272q62 14 87 49.5t28 116.5v291q0 155 74 223q44 40 101.5 52.5t190.5 12.5q76 0 168 -2v-313q-130 0 -165 -27.5t-33 -128.5v-168q-3 -105 -28 -157.5t-91 -93.5q66 -38 91.5 -93.5t27.5 -158.5v-181q0 -37 2 -60t10.5 -42t20.5 -28.5t36 -16.5t53 -8.5 t76 -1.5v-295q-135 -4 -180 -4q-129 0 -189.5 16.5t-103.5 63.5q-61 67 -61 219v280q0 88 -25 128t-90 55z" />
<glyph unicode="|" d="M342 -342v1708h342v-1708h-342z" />
<glyph unicode="}" d="M195 -80h28q108 0 140 29t32 127v168q3 106 28 159t91 93q-66 38 -91.5 93.5t-27.5 158.5v180q-1 74 -8.5 98t-32.5 39q-36 22 -131 22h-28v295q113 2 182 2q130 0 190.5 -16t102.5 -63q61 -67 61 -218v-282q0 -86 25 -125.5t88 -56.5v-273q-61 -13 -85.5 -48.5 t-27.5 -115.5v-290q0 -158 -74 -226q-44 -40 -101.5 -52.5t-188.5 -12.5q-66 0 -172 4v311z" />
<glyph unicode="~" horiz-adv-x="1366" d="M188 1255q114 289 312 289q65 0 229 -67q79 -32 103 -39.5t47 -7.5q40 0 73 28t66 92l162 -137q-63 -156 -136 -221.5t-184 -65.5q-43 0 -80 11t-149 57q-103 43 -146 43q-37 0 -67.5 -27.5t-65.5 -91.5z" />
<glyph unicode="&#xa1;" horiz-adv-x="618" d="M137 809q0 73 49 121.5t123 48.5q75 0 123.5 -48.5t48.5 -123.5t-49 -123.5t-125 -48.5q-73 0 -121.5 49.5t-48.5 124.5zM158 -418v895h303v-895h-303z" />
<glyph unicode="&#xa2;" d="M96 655q0 144 57.5 258t161.5 179q50 30 100 45t130 24v146h102v-146q94 -7 169 -43.5t155 -111.5l-201 -177q-31 33 -56 47t-67 21v-483q39 5 65 16t58 37l184 -186q-125 -113 -307 -131v-213h-102v213q-80 11 -131.5 28.5t-106.5 54.5q-109 71 -160 172.5t-51 249.5z M389 659q0 -195 156 -245v483q-40 -10 -61.5 -23.5t-43.5 -42.5q-51 -68 -51 -172z" />
<glyph unicode="&#xa3;" d="M43 0q8 158 85 256.5t200 105.5q27 54 36 80t9 52q0 84 -70 139h-237v137h131q-46 60 -63 107.5t-17 115.5q0 172 118 282.5t302 110.5q103 0 195.5 -40.5t158.5 -114.5q38 -42 54.5 -95.5t19.5 -140.5h-275q0 71 -37.5 115.5t-97.5 44.5q-56 0 -94.5 -40.5t-38.5 -98.5 t26 -105t111 -141h264v-137h-200q28 -74 28 -113q0 -41 -18.5 -78.5t-73.5 -109.5l8 -4l39 -13q20 -5 62 -30q69 -38 107 -52t73 -14q56 0 117 53v-227q-92 -65 -201 -65q-52 0 -102 20t-150 80q-79 47 -127 47q-50 0 -80 -34.5t-31 -92.5h-231z" />
<glyph unicode="&#xa4;" horiz-adv-x="1472" d="M78 219l209 209q-74 132 -74 266q0 128 80 271l-215 213l174 176l219 -219q79 42 137.5 58.5t128.5 16.5q68 0 123.5 -15.5t136.5 -57.5l215 215l174 -174l-210 -211q81 -135 81 -275q0 -68 -15.5 -126t-55.5 -136l207 -209l-170 -174l-209 207q-134 -82 -269 -82 q-139 0 -286 82l-209 -207zM508 694q0 -94 66.5 -161.5t160.5 -67.5t161 67.5t67 163.5q0 94 -67 162t-159 68q-97 0 -163 -67t-66 -165z" />
<glyph unicode="&#xa5;" d="M4 1366h326l188 -485l189 485h311l-203 -444h162v-150h-229l-76 -172v-14h264v-150h-264v-436h-314v436h-272v150h272v14l-77 172h-236v150h164z" />
<glyph unicode="&#xa6;" d="M342 313h342v-655h-342v655zM342 637v729h342v-729h-342z" />
<glyph unicode="&#xa7;" d="M72 494q0 123 61.5 208t169.5 113q-178 78 -178 262q0 142 104.5 229t274.5 87q119 0 214.5 -42.5t141.5 -117.5q43 -64 49 -191h-262q-5 66 -40.5 102t-96.5 36q-52 0 -87.5 -32.5t-35.5 -78.5q0 -51 43 -85t172 -87q114 -46 165.5 -75t92.5 -70q92 -89 92 -226 q0 -218 -221 -325q166 -85 166 -264q0 -152 -112 -250.5t-285 -98.5q-109 0 -196.5 40.5t-139.5 115.5q-33 46 -47 93.5t-17 121.5h267q0 -72 38 -115t101 -43q56 0 92.5 37t36.5 94q0 71 -62 109q-41 24 -153 63q-107 40 -160.5 69t-91.5 69q-46 46 -71 112t-25 140z M328 502q0 -71 53 -120.5t129 -49.5q75 0 127.5 49.5t52.5 120.5q0 70 -52 120t-126 50q-78 0 -131 -49t-53 -121z" />
<glyph unicode="&#xa8;" d="M129 1251q0 66 46 111t114 45q67 0 112 -45t45 -113q0 -64 -46 -108.5t-111 -44.5q-68 0 -114 44.5t-46 110.5zM580 1251q0 66 46 111t113 45t112.5 -45.5t45.5 -112.5q0 -64 -46.5 -108.5t-111.5 -44.5q-68 0 -113.5 44.5t-45.5 110.5z" />
<glyph unicode="&#xa9;" horiz-adv-x="1570" d="M76 682q0 196 95.5 360t261 258.5t362.5 94.5q188 0 349 -96.5t255 -261t94 -355.5q0 -192 -95 -356t-258 -259.5t-354 -95.5q-144 0 -275.5 56.5t-226.5 152t-151.5 227t-56.5 275.5zM231 682q0 -153 74.5 -283.5t202.5 -207t278 -76.5q149 0 276 76t201 206.5t74 284.5 q0 153 -73.5 284t-199 208t-271.5 77q-115 0 -219.5 -44.5t-179.5 -120t-119 -181t-44 -223.5zM399 688q0 181 110 295.5t284 114.5q143 0 242 -83t108 -210h-152q-15 57 -67 89t-129 32q-92 0 -144.5 -64.5t-52.5 -175.5q0 -110 52 -173.5t143 -63.5q86 0 140 41t64 116 h154q-12 -152 -110 -241t-255 -89q-173 0 -280 114t-107 298z" />
<glyph unicode="&#xaa;" horiz-adv-x="825" d="M45 823q0 138 89 229t224 91q105 0 177 -72v49h208v-573h-208v49q-75 -72 -193 -72q-129 0 -213 84.5t-84 214.5zM266 827q0 -62 38 -103.5t95 -41.5t97.5 43.5t40.5 105.5q0 63 -38.5 103.5t-99.5 40.5q-58 0 -95.5 -41.5t-37.5 -106.5z" />
<glyph unicode="&#xab;" horiz-adv-x="872" d="M68 492l188 342h193l-193 -342l193 -334h-193zM410 492l188 342h193l-193 -342l193 -334h-193z" />
<glyph unicode="&#xac;" d="M68 303v297h886v-600h-329v303h-557z" />
<glyph unicode="&#xad;" horiz-adv-x="468" d="M0 365v272h469v-272h-469z" />
<glyph unicode="&#xae;" horiz-adv-x="1570" d="M76 682q0 196 95.5 360t261 258.5t362.5 94.5q188 0 349 -96.5t255 -261t94 -355.5q0 -192 -95 -356t-258 -259.5t-354 -95.5q-144 0 -275.5 56.5t-226.5 152t-151.5 227t-56.5 275.5zM231 682q0 -153 74.5 -283.5t202 -207t276.5 -76.5q150 0 277.5 76t201.5 206.5 t74 284.5q0 153 -73.5 284t-199 208t-271.5 77q-115 0 -219.5 -44.5t-179.5 -120t-119 -181t-44 -223.5zM485 297v786h334q122 0 182 -36q107 -60 107 -185q0 -130 -129 -190q66 -28 90 -79.5t27 -176.5q6 -84 20 -119h-188q-13 24 -19 102q-6 128 -34 168.5t-115 46.5h-76 v-317h-199zM684 729h92q70 0 102.5 28.5t32.5 90.5q0 60 -30 87.5t-95 27.5h-102v-234z" />
<glyph unicode="&#xaf;" d="M180 1153v176h662v-176h-662z" />
<glyph unicode="&#xb0;" d="M184 1051q0 137 96 233t234 96q137 0 231.5 -96t94.5 -235q0 -133 -96 -229.5t-230 -96.5q-136 0 -233 96.5t-97 231.5zM315 1051q0 -82 57.5 -140.5t139.5 -58.5q78 0 137.5 58.5t59.5 136.5q0 86 -58 145t-141 59q-78 0 -136.5 -59.5t-58.5 -140.5z" />
<glyph unicode="&#xb1;" d="M16 33v157h994v-157h-994zM16 670v157h414v410h164v-410h416v-157h-416v-396h-164v396h-414z" />
<glyph unicode="&#xb2;" horiz-adv-x="679" d="M31 545l307 454q40 59 52.5 85t12.5 51q0 31 -20.5 49t-54.5 18q-47 0 -67 -28.5t-21 -98.5h-191q-2 12 -2 27q0 126 81 203t210 77q121 0 198.5 -65t77.5 -166q0 -57 -24 -113.5t-86 -146.5l-121 -172h209v-174h-561z" />
<glyph unicode="&#xb3;" horiz-adv-x="679" d="M41 797h188q5 -43 28.5 -66.5t61.5 -23.5q41 0 70 27t29 67q0 43 -28 70.5t-71 27.5q-35 0 -65 -18l-127 98l166 219h-215v168h561l-231 -303q95 -13 152.5 -81.5t57.5 -168.5q0 -124 -82 -204.5t-210 -80.5q-78 0 -143.5 32t-100.5 87q-33 54 -41 150z" />
<glyph unicode="&#xb4;" d="M373 1096l170 290h299l-285 -290h-184z" />
<glyph unicode="&#xb5;" d="M55 -350v1333h287v-506q0 -70 6 -104.5t23 -65.5q52 -86 143 -86q82 0 125 67.5t43 194.5v500h287v-983h-287v127q-28 -75 -70 -110t-104 -35q-56 0 -95 27.5t-71 88.5v-448h-287z" />
<glyph unicode="&#xb6;" d="M55 993q0 101 45 186t123 132q96 55 250 55h428v-1581h-147v1485h-162v-1485h-150v846h-30q-157 0 -257 101t-100 261z" />
<glyph unicode="&#xb7;" horiz-adv-x="563" d="M109 508q0 75 49 123.5t125 48.5q73 0 121.5 -49.5t48.5 -124.5q0 -73 -49 -121.5t-123 -48.5q-75 0 -123.5 48.5t-48.5 123.5z" />
<glyph unicode="&#xb8;" d="M315 -317q59 27 102.5 69.5t90.5 120.5l203 -88q-62 -76 -122 -121.5t-149 -83.5z" />
<glyph unicode="&#xb9;" horiz-adv-x="679" d="M158 1057v182l350 154v-846h-211v567z" />
<glyph unicode="&#xba;" horiz-adv-x="770" d="M47 829q0 138 94.5 225t245.5 87q146 0 241 -89.5t95 -226.5q0 -127 -98.5 -215t-241.5 -88q-146 0 -241 86.5t-95 220.5zM256 831q0 -59 35.5 -96t93.5 -37q56 0 91.5 36t35.5 93q0 65 -33.5 101.5t-93.5 36.5q-59 0 -94 -36.5t-35 -97.5z" />
<glyph unicode="&#xbb;" horiz-adv-x="872" d="M82 158l192 342l-192 334h192l189 -334l-189 -342h-192zM424 158l192 342l-192 334h190l191 -334l-191 -342h-190z" />
<glyph unicode="&#xbc;" horiz-adv-x="1619" d="M158 1057v182l350 154v-846h-211v567zM324 29l882 1364l90 -54l-884 -1366zM993 158v164l267 497h237v-493h70v-168h-70v-158h-201v158h-303zM1159 319h148v269z" />
<glyph unicode="&#xbd;" horiz-adv-x="1619" d="M158 1057v182l350 154v-846h-211v567zM324 29l882 1364l90 -54l-884 -1366zM971 0l307 455q40 59 52.5 84.5t12.5 50.5q0 31 -20.5 49t-54.5 18q-47 0 -67 -28.5t-21 -98.5h-191q-2 12 -2 27q0 126 81 203.5t210 77.5q121 0 198.5 -65t77.5 -165q0 -58 -24 -115t-86 -147 l-121 -172h209v-174h-561z" />
<glyph unicode="&#xbe;" horiz-adv-x="1619" d="M41 797h188q5 -43 28.5 -66.5t61.5 -23.5q41 0 70 27t29 67q0 43 -28 70.5t-71 27.5q-35 0 -65 -18l-127 98l166 219h-215v168h561l-231 -303q95 -13 152.5 -81.5t57.5 -168.5q0 -124 -82 -204.5t-210 -80.5q-78 0 -143.5 32t-100.5 87q-33 54 -41 150zM326 29l882 1364 l88 -54l-882 -1366zM995 158v164l267 497h237v-493h68v-168h-68v-158h-201v158h-303zM1161 319h148v269z" />
<glyph unicode="&#xbf;" horiz-adv-x="935" d="M68 -70q0 99 40 172t132 140q75 54 93.5 78.5t18.5 70.5v29q-2 8 -2 33h316l2 -78q0 -102 -35 -162q-21 -33 -43 -53t-115 -94q-51 -39 -71.5 -69t-20.5 -63q0 -44 29.5 -71t76.5 -27q112 0 115 127h287q-5 -194 -112.5 -300.5t-297.5 -106.5q-183 0 -298 104t-115 270z M334 809q0 73 49 121.5t123 48.5q75 0 123.5 -48.5t48.5 -123.5t-49 -123.5t-125 -48.5q-73 0 -121.5 49.5t-48.5 124.5z" />
<glyph unicode="&#xc0;" horiz-adv-x="1320" d="M0 0l451 1366h421l449 -1366h-365l-59 197h-483l-60 -197h-354zM262 1769h307l199 -274h-205zM496 465h319l-160 510z" />
<glyph unicode="&#xc1;" horiz-adv-x="1320" d="M0 0l451 1366h421l449 -1366h-365l-59 197h-483l-60 -197h-354zM496 465h319l-160 510zM553 1495l199 274h307l-301 -274h-205z" />
<glyph unicode="&#xc2;" horiz-adv-x="1320" d="M0 0l451 1366h421l449 -1366h-365l-59 197h-483l-60 -197h-354zM293 1495l235 274h281l219 -274h-205l-159 125l-166 -125h-205zM496 465h319l-160 510z" />
<glyph unicode="&#xc3;" horiz-adv-x="1320" d="M0 0l451 1366h421l449 -1366h-365l-59 197h-483l-60 -197h-354zM305 1503q8 74 25 116t55 79q66 63 147 63q41 0 125 -30q99 -37 123 -37q46 0 64 69h200q-12 -75 -30.5 -117t-55.5 -79q-61 -64 -141 -64q-47 0 -151 35q-96 29 -111 29q-51 0 -51 -64h-199zM496 465h319 l-160 510z" />
<glyph unicode="&#xc4;" horiz-adv-x="1320" d="M0 0l451 1366h421l449 -1366h-365l-59 197h-483l-60 -197h-354zM276 1653q0 65 47.5 110t116.5 45q66 0 113 -46t47 -113q0 -63 -48 -108.5t-114 -45.5q-68 0 -115 46t-47 112zM496 465h319l-160 510zM721 1653q0 65 47.5 110t116.5 45q66 0 112.5 -46t46.5 -113 q0 -63 -47.5 -108.5t-113.5 -45.5q-68 0 -115 46t-47 112z" />
<glyph unicode="&#xc5;" horiz-adv-x="1320" d="M0 0l451 1366h421l449 -1366h-365l-59 197h-483l-60 -197h-354zM459 1645q0 83 58.5 139.5t144.5 56.5t143 -57.5t57 -143.5q0 -80 -58.5 -136t-141.5 -56q-86 0 -144.5 57t-58.5 140zM496 465h319l-160 510zM569 1645q0 -37 27.5 -64t65.5 -27q37 0 63.5 26.5t26.5 61.5 q0 38 -26.5 65.5t-63.5 27.5q-38 0 -65.5 -26.5t-27.5 -63.5z" />
<glyph unicode="&#xc6;" horiz-adv-x="1779" d="M-14 0l729 1366h975v-268h-439v-279h439v-268h-439v-283h439v-268h-770v240h-455l-125 -240h-354zM600 498h320v612z" />
<glyph unicode="&#xc7;" horiz-adv-x="1304" d="M70 680q0 166 63.5 313.5t177.5 245.5q183 154 453 154q171 0 323 -68q53 -25 93.5 -54t101.5 -85l-213 -223q-139 122 -293 122q-164 0 -267 -110t-103 -285q0 -181 109.5 -295t281.5 -114q168 0 272 116l197 -229q-123 -105 -241.5 -150t-270.5 -45q-314 0 -500 207 q-88 97 -136 228t-48 272zM426 -330q95 41 145.5 89.5t65.5 113.5l289 -80q-57 -80 -150 -140t-207 -91z" />
<glyph unicode="&#xc8;" horiz-adv-x="940" d="M68 0v1366h782v-268h-451v-279h451v-268h-451v-283h451v-268h-782zM109 1769h307l198 -274h-204z" />
<glyph unicode="&#xc9;" horiz-adv-x="940" d="M68 0v1366h782v-268h-451v-279h451v-268h-451v-283h451v-268h-782zM336 1495l196 274h310l-301 -274h-205z" />
<glyph unicode="&#xca;" horiz-adv-x="940" d="M68 0v1366h782v-268h-451v-279h451v-268h-451v-283h451v-268h-782zM100 1495l236 274h282l220 -274h-205l-162 125l-166 -125h-205z" />
<glyph unicode="&#xcb;" horiz-adv-x="940" d="M68 0v1366h782v-268h-451v-279h451v-268h-451v-283h451v-268h-782zM86 1653q0 65 47.5 110t116.5 45q66 0 113 -46t47 -113q0 -63 -48 -108.5t-114 -45.5q-68 0 -115 46t-47 112zM530 1653q0 65 47.5 110t116.5 45q66 0 113 -46t47 -113q0 -63 -48 -108.5t-114 -45.5 q-68 0 -115 46t-47 112z" />
<glyph unicode="&#xcc;" horiz-adv-x="591" d="M-92 1769h307l199 -274h-205zM129 0v1366h332v-1366h-332z" />
<glyph unicode="&#xcd;" horiz-adv-x="591" d="M129 0v1366h332v-1366h-332zM180 1495l199 274h307l-301 -274h-205z" />
<glyph unicode="&#xce;" horiz-adv-x="591" d="M-72 1495l236 274h282l218 -274h-205l-160 125l-166 -125h-205zM131 0v1366h332v-1366h-332z" />
<glyph unicode="&#xcf;" horiz-adv-x="591" d="M-59 1653q0 65 47 110t116 45q66 0 113 -46t47 -113q0 -63 -48 -108.5t-114 -45.5q-67 0 -114 46t-47 112zM131 0v1366h332v-1366h-332zM330 1653q0 65 47.5 110t116.5 45q66 0 112.5 -46t46.5 -113q0 -63 -47.5 -108.5t-113.5 -45.5q-68 0 -115 46t-47 112z" />
<glyph unicode="&#xd0;" horiz-adv-x="1327" d="M6 561v258h123v547h399q177 0 294.5 -34.5t211.5 -114.5q109 -94 166 -227.5t57 -293.5q0 -162 -57 -304t-160 -234q-175 -158 -475 -158h-436v561h-123zM461 272h51q183 0 296.5 114.5t113.5 297.5q0 92 -34 178t-91 139q-50 45 -123.5 72t-149.5 27h-63v-281h198v-258 h-198v-289z" />
<glyph unicode="&#xd1;" horiz-adv-x="1421" d="M129 0v1366h332l497 -768v768h332v-1366h-332l-497 778v-778h-332zM354 1503q8 74 25 116t55 79q66 63 148 63q41 0 127 -30q96 -37 120 -37q45 0 66 69h199q-12 -75 -30.5 -117t-55.5 -79q-58 -64 -142 -64q-47 0 -151 35q-96 29 -111 29q-51 0 -51 -64h-199z" />
<glyph unicode="&#xd2;" horiz-adv-x="1585" d="M70 678q0 150 58.5 284.5t170.5 239.5q99 93 229.5 142t280.5 49q149 0 280 -54.5t225 -148.5t148 -226.5t54 -283.5q0 -144 -56.5 -275t-152.5 -225.5t-228 -150.5t-278 -56q-150 0 -285.5 55.5t-233 149.5t-155 224.5t-57.5 275.5zM408 682q0 -169 112 -285t275 -116 q160 0 272.5 115.5t112.5 279.5q0 175 -109.5 292t-273.5 117q-167 0 -278 -115t-111 -288zM444 1769h308l198 -274h-205z" />
<glyph unicode="&#xd3;" horiz-adv-x="1585" d="M70 678q0 150 58.5 284.5t170.5 239.5q99 93 229.5 142t280.5 49q149 0 280 -54.5t225 -148.5t148 -226.5t54 -283.5q0 -144 -56.5 -275t-152.5 -225.5t-228 -150.5t-278 -56q-150 0 -285.5 55.5t-233 149.5t-155 224.5t-57.5 275.5zM408 682q0 -169 112 -285t275 -116 q160 0 272.5 115.5t112.5 279.5q0 175 -109.5 292t-273.5 117q-167 0 -278 -115t-111 -288zM678 1495l199 274h307l-301 -274h-205z" />
<glyph unicode="&#xd4;" horiz-adv-x="1585" d="M70 678q0 150 58.5 284.5t170.5 239.5q99 93 229.5 142t280.5 49q149 0 280 -54.5t225 -148.5t148 -226.5t54 -283.5q0 -144 -56.5 -275t-152.5 -225.5t-228 -150.5t-278 -56q-150 0 -285.5 55.5t-233 149.5t-155 224.5t-57.5 275.5zM408 682q0 -169 112 -285t275 -116 q160 0 272.5 115.5t112.5 279.5q0 175 -109.5 292t-273.5 117q-167 0 -278 -115t-111 -288zM424 1495l235 274h283l219 -274h-205l-161 125l-166 -125h-205z" />
<glyph unicode="&#xd5;" horiz-adv-x="1585" d="M70 678q0 150 58.5 284.5t170.5 239.5q99 93 229.5 142t280.5 49q149 0 280 -54.5t225 -148.5t148 -226.5t54 -283.5q0 -144 -56.5 -275t-152.5 -225.5t-228 -150.5t-278 -56q-150 0 -285.5 55.5t-233 149.5t-155 224.5t-57.5 275.5zM408 682q0 -169 112 -285t275 -116 q160 0 272.5 115.5t112.5 279.5q0 175 -109.5 292t-273.5 117q-167 0 -278 -115t-111 -288zM436 1503q7 73 25 115.5t55 79.5q66 63 148 63q41 0 127 -30q99 -37 120 -37q45 0 66 69h199q-10 -74 -28.5 -116.5t-55.5 -79.5q-61 -64 -142 -64q-49 0 -153 35q-91 29 -111 29 q-48 0 -51 -64h-199z" />
<glyph unicode="&#xd6;" horiz-adv-x="1585" d="M70 678q0 150 58.5 284.5t170.5 239.5q99 93 229.5 142t280.5 49q149 0 280 -54.5t225 -148.5t148 -226.5t54 -283.5q0 -144 -56.5 -275t-152.5 -225.5t-228 -150.5t-278 -56q-150 0 -285.5 55.5t-233 149.5t-155 224.5t-57.5 275.5zM408 682q0 -169 112 -285t275 -116 q160 0 272.5 115.5t112.5 279.5q0 175 -109.5 292t-273.5 117q-167 0 -278 -115t-111 -288zM410 1653q0 65 47 110t116 45q66 0 113 -46t47 -113q0 -63 -48 -108.5t-114 -45.5q-67 0 -114 46t-47 112zM852 1653q0 65 47.5 110t116.5 45q66 0 113 -46t47 -113 q0 -63 -48 -108.5t-114 -45.5q-68 0 -115 46t-47 112z" />
<glyph unicode="&#xd7;" d="M94 438l307 305l-303 299l113 113l299 -303l305 307l115 -117l-307 -303l305 -301l-111 -112l-303 305l-305 -307z" />
<glyph unicode="&#xd8;" horiz-adv-x="1581" d="M68 672q0 204 92.5 369t255.5 258.5t364 93.5q145 0 273.5 -48t218.5 -137l151 140l74 -88l-143 -132q86 -122 121.5 -225t35.5 -225q0 -165 -79.5 -317t-217.5 -252q-189 -136 -440 -136q-275 0 -473 183l-143 -131l-74 84l139 129q-85 110 -120 209t-35 225zM406 682 q0 -132 59 -221l567 528q-107 96 -237 96q-163 0 -276 -117t-113 -286zM537 371q106 -90 245 -90q166 0 280 116t114 283q0 122 -66 223z" />
<glyph unicode="&#xd9;" horiz-adv-x="1310" d="M109 586v780h331v-795q0 -146 47 -213q26 -36 71 -56.5t97 -20.5q57 0 106.5 25t72.5 65q34 61 34 200v795h332v-780q0 -302 -141 -455q-69 -75 -174 -116.5t-228 -41.5q-128 0 -238 44t-183 126q-66 74 -96.5 179t-30.5 264zM305 1769h309l197 -274h-205z" />
<glyph unicode="&#xda;" horiz-adv-x="1310" d="M109 586v780h331v-795q0 -146 47 -213q26 -36 71 -56.5t97 -20.5q57 0 106.5 25t72.5 65q34 61 34 200v795h332v-780q0 -302 -141 -455q-69 -75 -174 -116.5t-228 -41.5q-128 0 -238 44t-183 126q-66 74 -96.5 179t-30.5 264zM549 1495l196 274h310l-301 -274h-205z" />
<glyph unicode="&#xdb;" horiz-adv-x="1310" d="M109 586v780h331v-795q0 -146 47 -213q26 -36 71 -56.5t97 -20.5q57 0 106.5 25t72.5 65q34 61 34 200v795h332v-780q0 -302 -141 -455q-69 -75 -174 -116.5t-228 -41.5q-128 0 -238 44t-183 126q-66 74 -96.5 179t-30.5 264zM287 1495l235 274h281l219 -274h-205 l-160 125l-165 -125h-205z" />
<glyph unicode="&#xdc;" horiz-adv-x="1310" d="M109 586v780h331v-795q0 -146 47 -213q26 -36 71 -56.5t97 -20.5q57 0 106.5 25t72.5 65q34 61 34 200v795h332v-780q0 -302 -141 -455q-69 -75 -174 -116.5t-228 -41.5q-128 0 -238 44t-183 126q-66 74 -96.5 179t-30.5 264zM270 1653q0 65 47.5 110t116.5 45 q66 0 113 -46t47 -113q0 -63 -48 -108.5t-114 -45.5q-68 0 -115 46t-47 112zM715 1653q0 65 47.5 110t116.5 45q66 0 112.5 -46t46.5 -113q0 -63 -47.5 -108.5t-113.5 -45.5q-68 0 -115 46t-47 112z" />
<glyph unicode="&#xdd;" horiz-adv-x="1169" d="M-27 1366h396l221 -420l217 420h389l-442 -764v-602h-332v602zM483 1495l197 274h309l-301 -274h-205z" />
<glyph unicode="&#xde;" horiz-adv-x="1159" d="M129 0v1366h332v-137h137q243 0 375.5 -117.5t132.5 -331.5q0 -215 -132.5 -344t-355.5 -129h-157v-307h-332zM461 580h92q103 0 160 49.5t57 138.5q0 85 -53.5 136.5t-141.5 51.5h-114v-376z" />
<glyph unicode="&#xdf;" horiz-adv-x="1124" d="M51 690v258h86v101q0 151 115 245.5t297 94.5q192 0 311 -92.5t119 -241.5q0 -186 -166 -256q121 -41 187.5 -140t66.5 -237q0 -182 -94 -313q-93 -127 -281 -127q-94 0 -178 36l47 254q30 -6 45 -6q71 0 114.5 47t43.5 123q0 90 -70 144q-41 30 -133 38v279q55 5 76 21 q41 30 41 86q0 47 -34 80.5t-81 33.5q-67 0 -98 -55q-10 -18 -13 -39t-3 -76v-948h-312v690h-86z" />
<glyph unicode="&#xe0;" horiz-adv-x="1273" d="M59 461q0 227 139 375.5t353 148.5q91 0 158.5 -32t136.5 -107v102h311v-948h-311v106q-125 -143 -322 -143q-203 0 -334 140t-131 358zM305 1386h301l170 -290h-184zM391 467q0 -109 65 -183.5t160 -74.5q97 0 165.5 77.5t68.5 184.5q0 113 -65 184.5t-167 71.5 q-100 0 -163.5 -73t-63.5 -187z" />
<glyph unicode="&#xe1;" horiz-adv-x="1273" d="M59 461q0 227 139 375.5t353 148.5q91 0 158.5 -32t136.5 -107v102h311v-948h-311v106q-125 -143 -322 -143q-203 0 -334 140t-131 358zM391 467q0 -109 65 -183.5t160 -74.5q97 0 165.5 77.5t68.5 184.5q0 113 -65 184.5t-167 71.5q-100 0 -163.5 -73t-63.5 -187z M532 1096l170 290h299l-284 -290h-185z" />
<glyph unicode="&#xe2;" horiz-adv-x="1273" d="M59 461q0 227 139 375.5t353 148.5q91 0 158.5 -32t136.5 -107v102h311v-948h-311v106q-125 -143 -322 -143q-203 0 -334 140t-131 358zM313 1096l207 290h287l190 -290h-204l-136 141l-139 -141h-205zM391 467q0 -109 65 -183.5t160 -74.5q97 0 165.5 77.5t68.5 184.5 q0 113 -65 184.5t-167 71.5q-100 0 -163.5 -73t-63.5 -187z" />
<glyph unicode="&#xe3;" horiz-adv-x="1273" d="M59 461q0 227 139 375.5t353 148.5q91 0 158.5 -32t136.5 -107v102h311v-948h-311v106q-125 -143 -322 -143q-203 0 -334 140t-131 358zM305 1102q19 128 75 194t146 66q51 0 168 -43q49 -19 62 -19q32 0 41 66h196q-12 -118 -72 -189t-147 -71q-35 0 -63.5 8t-102.5 37 q-52 18 -59 18q-31 0 -45 -67h-199zM391 467q0 -109 65 -183.5t160 -74.5q97 0 165.5 77.5t68.5 184.5q0 113 -65 184.5t-167 71.5q-100 0 -163.5 -73t-63.5 -187z" />
<glyph unicode="&#xe4;" horiz-adv-x="1273" d="M59 461q0 227 139 375.5t353 148.5q91 0 158.5 -32t136.5 -107v102h311v-948h-311v106q-125 -143 -322 -143q-203 0 -334 140t-131 358zM262 1251q0 66 46 111t114 45t113 -45.5t45 -112.5q0 -64 -46.5 -108.5t-111.5 -44.5q-68 0 -114 44.5t-46 110.5zM391 467 q0 -109 65 -183.5t160 -74.5q97 0 165.5 77.5t68.5 184.5q0 113 -65 184.5t-167 71.5q-100 0 -163.5 -73t-63.5 -187zM711 1251q0 66 46 111t113 45q68 0 113 -45.5t45 -112.5q0 -64 -46.5 -108.5t-111.5 -44.5q-68 0 -113.5 44.5t-45.5 110.5z" />
<glyph unicode="&#xe5;" horiz-adv-x="1273" d="M59 461q0 227 139 375.5t353 148.5q91 0 158.5 -32t136.5 -107v102h311v-948h-311v106q-125 -143 -322 -143q-203 0 -334 140t-131 358zM391 467q0 -109 65 -183.5t160 -74.5q97 0 165.5 77.5t68.5 184.5q0 113 -65 184.5t-167 71.5q-100 0 -163.5 -73t-63.5 -187z M465 1249q0 83 58.5 140t144.5 57t143 -57.5t57 -143.5q0 -80 -58.5 -136t-141.5 -56q-86 0 -144.5 56.5t-58.5 139.5zM575 1249q0 -37 27.5 -63.5t65.5 -26.5q37 0 63.5 26.5t26.5 61.5q0 38 -26.5 65t-63.5 27q-38 0 -65.5 -26.5t-27.5 -63.5z" />
<glyph unicode="&#xe6;" horiz-adv-x="1953" d="M57 463q0 226 137.5 375t344.5 149q203 0 333 -127v88h297v-88q60 70 118 97.5t145 27.5q198 0 333.5 -149t135.5 -367q0 -25 -3 -66h-729q19 -76 82 -120.5t152 -44.5q62 0 102.5 23t81.5 83l287 -84q-78 -146 -188.5 -221.5t-245.5 -75.5q-92 0 -153.5 28.5 t-117.5 96.5v-88h-297v88q-118 -127 -317 -127q-226 0 -362 137.5t-136 364.5zM389 473q0 -110 72.5 -188t173.5 -78q98 0 163.5 71t65.5 177q0 120 -65.5 197t-169.5 77q-101 0 -170.5 -73.5t-69.5 -182.5zM1169 569h414q-40 158 -201 158q-82 0 -131.5 -36.5t-81.5 -121.5 z" />
<glyph unicode="&#xe7;" horiz-adv-x="968" d="M59 469q0 225 146.5 370.5t372.5 145.5q109 0 202 -39t193 -125l-207 -186q-76 76 -174 76q-92 0 -155.5 -67t-63.5 -165q0 -103 67 -172t168 -69q42 0 76.5 14.5t81.5 52.5l186 -201q-85 -73 -174 -107t-196 -34q-105 0 -205 39.5t-174 110.5q-144 135 -144 356z M319 -317q59 26 101.5 68.5t89.5 121.5l203 -88q-60 -76 -120.5 -121.5t-150.5 -83.5z" />
<glyph unicode="&#xe8;" horiz-adv-x="1153" d="M59 479q0 226 143 366t373 140q235 0 380 -148t145 -391v-38h-719q17 -80 74.5 -125t142.5 -45q64 0 113 27t73 77l287 -74q-35 -71 -67 -111t-86 -81q-143 -113 -326 -113q-232 0 -382.5 145.5t-150.5 370.5zM229 1386h301l170 -290h-184zM379 573h403q-15 74 -68 114 t-136 40q-80 0 -132 -40.5t-67 -113.5z" />
<glyph unicode="&#xe9;" horiz-adv-x="1153" d="M59 479q0 226 143 366t373 140q235 0 380 -148t145 -391v-38h-719q17 -80 74.5 -125t142.5 -45q64 0 113 27t73 77l287 -74q-35 -71 -67 -111t-86 -81q-143 -113 -326 -113q-232 0 -382.5 145.5t-150.5 370.5zM379 573h403q-15 74 -68 114t-136 40q-80 0 -132 -40.5 t-67 -113.5zM461 1096l170 290h299l-285 -290h-184z" />
<glyph unicode="&#xea;" horiz-adv-x="1153" d="M59 479q0 226 143 366t373 140q235 0 380 -148t145 -391v-38h-719q17 -80 74.5 -125t142.5 -45q64 0 113 27t73 77l287 -74q-35 -71 -67 -111t-86 -81q-143 -113 -326 -113q-232 0 -382.5 145.5t-150.5 370.5zM233 1096l207 290h287l193 -290h-205l-135 141l-142 -141 h-205zM379 573h403q-15 74 -68 114t-136 40q-80 0 -132 -40.5t-67 -113.5z" />
<glyph unicode="&#xeb;" horiz-adv-x="1153" d="M59 479q0 226 143 366t373 140q235 0 380 -148t145 -391v-38h-719q17 -80 74.5 -125t142.5 -45q64 0 113 27t73 77l287 -74q-35 -71 -67 -111t-86 -81q-143 -113 -326 -113q-232 0 -382.5 145.5t-150.5 370.5zM193 1251q0 66 46 111t113 45q68 0 113 -45.5t45 -112.5 q0 -64 -46.5 -108.5t-111.5 -44.5q-68 0 -113.5 44.5t-45.5 110.5zM379 573h403q-15 74 -68 114t-136 40q-80 0 -132 -40.5t-67 -113.5zM643 1251q0 66 46 111t114 45q67 0 112.5 -45.5t45.5 -112.5q0 -64 -46.5 -108.5t-111.5 -44.5q-68 0 -114 44.5t-46 110.5z" />
<glyph unicode="&#xec;" horiz-adv-x="542" d="M-94 1386h299l170 -290h-182zM117 0v948h311v-948h-311z" />
<glyph unicode="&#xed;" horiz-adv-x="542" d="M117 0v948h311v-948h-311zM172 1096l170 290h299l-285 -290h-184z" />
<glyph unicode="&#xee;" horiz-adv-x="542" d="M-72 1096l207 290h287l190 -290h-204l-136 141l-139 -141h-205zM115 0v948h311v-948h-311z" />
<glyph unicode="&#xef;" horiz-adv-x="542" d="M-84 1251q0 66 46 111t114 45q67 0 112 -45t45 -113q0 -64 -46 -108.5t-111 -44.5q-68 0 -114 44.5t-46 110.5zM117 0v948h311v-948h-311zM311 1251q0 66 46 111t114 45q67 0 112.5 -45.5t45.5 -112.5q0 -64 -46.5 -108.5t-111.5 -44.5q-68 0 -114 44.5t-46 110.5z" />
<glyph unicode="&#xf0;" horiz-adv-x="1185" d="M59 471q0 227 149 370.5t384 143.5q80 0 156 -20q-26 72 -55 116.5t-87 102.5l-196 -105l-62 117l144 76q-25 22 -95.5 55t-117.5 45l53 88q158 -24 307 -108l213 114l68 -116l-148 -74q70 -52 115 -99t84 -112q155 -254 155 -551q0 -288 -176 -432q-149 -121 -358 -121 q-233 0 -383 143.5t-150 366.5zM373 475q0 -107 60 -173t157 -66q103 0 162 63t59 172q0 113 -57.5 175.5t-161.5 62.5q-98 0 -158.5 -64t-60.5 -170z" />
<glyph unicode="&#xf1;" horiz-adv-x="1110" d="M117 0v948h311v-106q46 78 101 110.5t141 32.5q70 0 134 -24.5t109 -67.5q48 -50 67 -118t19 -193v-582h-311v580q0 69 -34.5 108t-94.5 39t-95.5 -41.5t-35.5 -110.5v-575h-311zM225 1102q17 127 73.5 193.5t147.5 66.5q51 0 166 -43q52 -19 62 -19q35 0 41 66h198 q-14 -119 -73.5 -189.5t-147.5 -70.5q-34 0 -62 8t-102 37q-56 18 -59 18q-34 0 -45 -67h-199z" />
<glyph unicode="&#xf2;" horiz-adv-x="1183" d="M59 473q0 226 149.5 369t385.5 143q230 0 380 -147.5t150 -374.5q0 -138 -70.5 -253t-193.5 -181t-270 -66q-231 0 -381 144t-150 366zM262 1386h299l170 -290h-184zM371 473q0 -104 61.5 -169.5t159.5 -65.5q97 0 158 64t61 165q0 114 -58 178t-159 64t-162 -65 t-61 -171z" />
<glyph unicode="&#xf3;" horiz-adv-x="1183" d="M59 473q0 226 149.5 369t385.5 143q230 0 380 -147.5t150 -374.5q0 -138 -70.5 -253t-193.5 -181t-270 -66q-231 0 -381 144t-150 366zM371 473q0 -104 61.5 -169.5t159.5 -65.5q97 0 158 64t61 165q0 114 -58 178t-159 64t-162 -65t-61 -171zM453 1096l170 290h299 l-285 -290h-184z" />
<glyph unicode="&#xf4;" horiz-adv-x="1183" d="M59 473q0 226 149.5 369t385.5 143q230 0 380 -147.5t150 -374.5q0 -138 -70.5 -253t-193.5 -181t-270 -66q-231 0 -381 144t-150 366zM250 1096l207 290h284l193 -290h-205l-135 141l-139 -141h-205zM371 473q0 -104 61.5 -169.5t159.5 -65.5q97 0 158 64t61 165 q0 114 -58 178t-159 64t-162 -65t-61 -171z" />
<glyph unicode="&#xf5;" horiz-adv-x="1183" d="M59 473q0 226 149.5 369t385.5 143q230 0 380 -147.5t150 -374.5q0 -138 -70.5 -253t-193.5 -181t-270 -66q-231 0 -381 144t-150 366zM262 1102q17 128 73 194t148 66q51 0 166 -43q49 -19 62 -19q35 0 41 66h198q-14 -119 -73.5 -189.5t-147.5 -70.5q-35 0 -62 7.5 t-104 37.5q-52 18 -59 18q-31 0 -45 -67h-197zM371 473q0 -104 61.5 -169.5t159.5 -65.5q97 0 158 64t61 165q0 114 -58 178t-159 64t-162 -65t-61 -171z" />
<glyph unicode="&#xf6;" horiz-adv-x="1183" d="M59 473q0 226 149.5 369t385.5 143q230 0 380 -147.5t150 -374.5q0 -138 -70.5 -253t-193.5 -181t-270 -66q-231 0 -381 144t-150 366zM209 1251q0 66 46 111t114 45q67 0 112 -45t45 -113q0 -64 -46 -108.5t-111 -44.5q-68 0 -114 44.5t-46 110.5zM371 473 q0 -104 61.5 -169.5t159.5 -65.5q97 0 158 64t61 165q0 114 -58 178t-159 64t-162 -65t-61 -171zM657 1251q0 66 46 111t114 45q67 0 112.5 -45.5t45.5 -112.5q0 -64 -46.5 -108.5t-111.5 -44.5q-68 0 -114 44.5t-46 110.5z" />
<glyph unicode="&#xf7;" d="M16 662v157h994v-157h-994zM393 389q0 50 35.5 84.5t87.5 34.5q49 0 84 -35.5t35 -83.5q0 -51 -35.5 -86t-85.5 -35t-85.5 35t-35.5 86zM393 1087q0 51 35.5 86t87.5 35q50 0 84.5 -34.5t34.5 -83.5q0 -51 -35.5 -86t-85.5 -35t-85.5 34.5t-35.5 83.5z" />
<glyph unicode="&#xf8;" horiz-adv-x="1185" d="M59 471q0 224 149 370t376 146q105 0 187.5 -27t168.5 -90l107 99l65 -72l-100 -96q112 -159 112 -334q0 -212 -153 -358t-377 -146q-101 0 -185 27.5t-167 87.5l-111 -98l-68 73l105 97q-109 133 -109 321zM360 465q0 -51 25 -111l342 318q-58 39 -131 39 q-109 0 -172.5 -66t-63.5 -180zM455 276q63 -38 141 -38q100 0 162.5 65.5t62.5 169.5q0 71 -26 127z" />
<glyph unicode="&#xf9;" horiz-adv-x="1083" d="M102 352v596h312v-573q0 -74 34 -114t97 -40q59 0 92 35t33 96v596h311v-596q0 -108 -26.5 -175.5t-86.5 -117.5q-122 -96 -323 -96q-221 0 -338 105q-105 89 -105 284zM223 1386h299l170 -290h-184z" />
<glyph unicode="&#xfa;" horiz-adv-x="1083" d="M102 352v596h312v-573q0 -74 34 -114t97 -40q59 0 92 35t33 96v596h311v-596q0 -108 -26.5 -175.5t-86.5 -117.5q-122 -96 -323 -96q-221 0 -338 105q-105 89 -105 284zM426 1096l170 290h299l-287 -290h-182z" />
<glyph unicode="&#xfb;" horiz-adv-x="1083" d="M102 352v596h312v-573q0 -74 34 -114t97 -40q59 0 92 35t33 96v596h311v-596q0 -108 -26.5 -175.5t-86.5 -117.5q-122 -96 -323 -96q-221 0 -338 105q-105 89 -105 284zM199 1096l207 290h286l193 -290h-205l-135 141l-142 -141h-204z" />
<glyph unicode="&#xfc;" horiz-adv-x="1083" d="M102 352v596h312v-573q0 -74 34 -114t97 -40q59 0 92 35t33 96v596h311v-596q0 -108 -26.5 -175.5t-86.5 -117.5q-122 -96 -323 -96q-221 0 -338 105q-105 89 -105 284zM158 1251q0 66 46 111t113 45t112.5 -45.5t45.5 -112.5q0 -64 -46.5 -108.5t-111.5 -44.5 q-68 0 -113.5 44.5t-45.5 110.5zM608 1251q0 66 46 111t114 45t113 -45.5t45 -112.5q0 -64 -46.5 -108.5t-111.5 -44.5q-68 0 -114 44.5t-46 110.5z" />
<glyph unicode="&#xfd;" horiz-adv-x="991" d="M-10 948h329l164 -497l191 497h327l-518 -1370h-333l169 440zM416 1096l170 290h299l-287 -290h-182z" />
<glyph unicode="&#xfe;" horiz-adv-x="1280" d="M117 -418v1784h311v-508q56 66 126.5 96.5t168.5 30.5q139 0 254 -65q244 -139 244 -453q0 -232 -132 -368t-356 -136q-192 0 -305 119v-500h-311zM428 463q0 -115 61 -184.5t162 -69.5q103 0 170.5 71.5t67.5 180.5q0 115 -64.5 190.5t-162.5 75.5q-103 0 -168.5 -73.5 t-65.5 -190.5z" />
<glyph unicode="&#xff;" horiz-adv-x="991" d="M-10 948h329l164 -497l191 497h327l-518 -1370h-333l169 440zM113 1251q0 66 46 111t113 45q68 0 113 -45.5t45 -112.5q0 -64 -46.5 -108.5t-111.5 -44.5q-68 0 -113.5 44.5t-45.5 110.5zM561 1251q0 66 46 111t114 45q67 0 112.5 -45.5t45.5 -112.5q0 -64 -46.5 -108.5 t-111.5 -44.5q-68 0 -114 44.5t-46 110.5z" />
<glyph unicode="&#x152;" horiz-adv-x="2058" d="M76 688q0 147 54.5 278t147.5 224.5t224 148t278 54.5q247 0 426 -148v121h764v-268h-438v-279h438v-268h-438v-283h438v-268h-764v125q-152 -152 -422 -152q-199 0 -361 93t-254.5 257t-92.5 365zM412 680q0 -170 113.5 -284.5t283.5 -114.5q203 0 317 151q43 56 68 125 t25 133q0 169 -113.5 282t-282.5 113q-175 0 -293 -116.5t-118 -288.5z" />
<glyph unicode="&#x153;" horiz-adv-x="1843" d="M59 475q0 226 146.5 368t378.5 142q234 0 364 -139q145 139 365 139q162 0 285.5 -77.5t179.5 -213.5q27 -69 37 -131.5t10 -163.5h-709q5 -39 15 -60t36 -44q63 -57 162 -57q139 0 215 98l256 -80q-32 -63 -60.5 -99t-74.5 -73q-148 -121 -340 -121q-114 0 -204 34 t-173 109q-72 -68 -168.5 -105.5t-197.5 -37.5q-230 0 -376.5 143t-146.5 369zM373 481q0 -101 64.5 -172t156.5 -71q89 0 152 64.5t63 156.5q0 108 -62 180t-155 72q-92 0 -155.5 -66.5t-63.5 -163.5zM1104 565h422q-20 78 -74 120t-137 42q-162 0 -211 -162z" />
<glyph unicode="&#x178;" horiz-adv-x="1169" d="M-27 1366h396l221 -420l217 420h389l-442 -764v-602h-332v602zM203 1653q0 65 47.5 110t116.5 45q66 0 112.5 -46t46.5 -113q0 -63 -47.5 -108.5t-113.5 -45.5q-68 0 -115 46t-47 112zM645 1653q0 65 47.5 110t116.5 45q66 0 113 -46t47 -113q0 -63 -48 -108.5 t-114 -45.5q-68 0 -115 46t-47 112z" />
<glyph unicode="&#x2c6;" d="M170 1096l207 290h287l190 -290h-205l-135 141l-139 -141h-205z" />
<glyph unicode="&#x2dc;" d="M182 1102q17 127 73.5 193.5t147.5 66.5q51 0 166 -43q52 -19 62 -19q35 0 41 66h198q-14 -119 -73.5 -189.5t-147.5 -70.5q-35 0 -62 7.5t-102 37.5q-56 18 -59 18q-34 0 -45 -67h-199z" />
<glyph unicode="&#x2000;" horiz-adv-x="920" />
<glyph unicode="&#x2001;" horiz-adv-x="1841" />
<glyph unicode="&#x2002;" horiz-adv-x="920" />
<glyph unicode="&#x2003;" horiz-adv-x="1841" />
<glyph unicode="&#x2004;" horiz-adv-x="613" />
<glyph unicode="&#x2005;" horiz-adv-x="460" />
<glyph unicode="&#x2006;" horiz-adv-x="306" />
<glyph unicode="&#x2007;" horiz-adv-x="306" />
<glyph unicode="&#x2008;" horiz-adv-x="230" />
<glyph unicode="&#x2009;" horiz-adv-x="368" />
<glyph unicode="&#x200a;" horiz-adv-x="102" />
<glyph unicode="&#x2010;" horiz-adv-x="468" d="M0 365v272h469v-272h-469z" />
<glyph unicode="&#x2011;" horiz-adv-x="468" d="M0 365v272h469v-272h-469z" />
<glyph unicode="&#x2012;" horiz-adv-x="468" d="M0 365v272h469v-272h-469z" />
<glyph unicode="&#x2013;" d="M72 358v258h880v-258h-880z" />
<glyph unicode="&#x2014;" horiz-adv-x="1415" d="M0 385v231h1415v-231h-1415z" />
<glyph unicode="&#x2018;" horiz-adv-x="497" d="M63 963l150 430l205 -50l-90 -446z" />
<glyph unicode="&#x2019;" horiz-adv-x="497" d="M80 948l90 445l264 -64l-149 -432z" />
<glyph unicode="&#x201a;" horiz-adv-x="516" d="M80 -174l96 487l277 -69l-158 -467z" />
<glyph unicode="&#x201c;" horiz-adv-x="919" d="M63 926l160 467l213 -50l-96 -487zM467 926l158 467l215 -50l-97 -487z" />
<glyph unicode="&#x201d;" horiz-adv-x="919" d="M80 905l96 488l277 -70l-158 -467zM483 905l97 488l276 -70l-160 -467z" />
<glyph unicode="&#x201e;" horiz-adv-x="919" d="M80 -174l96 487l277 -69l-158 -467zM483 -174l97 487l276 -69l-160 -467z" />
<glyph unicode="&#x2022;" horiz-adv-x="1366" d="M401 694q0 120 83.5 203.5t203.5 83.5q114 0 195.5 -84t81.5 -201q0 -120 -82 -203t-199 -83t-200 83.5t-83 200.5z" />
<glyph unicode="&#x2026;" horiz-adv-x="1689" d="M109 141q0 75 49 123.5t125 48.5q73 0 121.5 -49.5t48.5 -124.5q0 -73 -49 -121.5t-123 -48.5q-75 0 -123.5 48.5t-48.5 123.5zM672 141q0 75 49 123.5t125 48.5q73 0 121.5 -49.5t48.5 -124.5q0 -73 -49 -121.5t-123 -48.5q-75 0 -123.5 48.5t-48.5 123.5zM1235 141 q0 75 49 123.5t125 48.5q73 0 121.5 -49.5t48.5 -124.5q0 -73 -49 -121.5t-123 -48.5q-75 0 -123.5 48.5t-48.5 123.5z" />
<glyph unicode="&#x202f;" horiz-adv-x="368" />
<glyph unicode="&#x2039;" horiz-adv-x="530" d="M68 492l188 342h193l-193 -342l193 -334h-193z" />
<glyph unicode="&#x203a;" horiz-adv-x="530" d="M82 158l192 342l-192 334h192l189 -334l-189 -342h-192z" />
<glyph unicode="&#x205f;" horiz-adv-x="460" />
<glyph unicode="&#x20ac;" d="M14 524l68 310h63q50 264 190.5 412.5t342.5 148.5q169 0 323 -125l-135 -316q-35 62 -84.5 96.5t-101.5 34.5q-68 0 -120.5 -68t-74.5 -183h314l-68 -310h-242q26 -110 86 -176.5t134 -66.5q56 0 112 38.5t94 102.5v-389q-108 -60 -229 -60q-198 0 -346.5 151 t-192.5 400h-133z" />
<glyph unicode="&#x2122;" horiz-adv-x="1767" d="M12 1194v172h613v-172h-195v-647h-223v647h-195zM729 547v819h256l217 -424l217 424h256v-819h-223v434l-250 -477l-250 477v-434h-223z" />
<glyph unicode="&#x25fc;" horiz-adv-x="952" d="M0 0v952h952v-952h-952z" />
<glyph unicode="&#xfb04;" horiz-adv-x="1730" d="M43 690v258h94v17q-1 210 102.5 308.5t319.5 92.5v-289q-57 -6 -83.5 -33t-26.5 -79v-17h110v-258h-110v-690h-312v690h-94zM627 690v258h92v17q-1 210 102.5 308.5t319.5 92.5v-289q-57 -6 -84 -33t-27 -79v-17h111v-258h-111v-690h-311v690h-92zM1303 0v1366h311v-1366 h-311z" />
</font>
</defs>
</svg>
